<mxfile host="Electron" modified="2023-11-06T09:28:00.698Z" agent="Mozilla/5.0 (Windows NT 10.0; Win64; x64) AppleWebKit/537.36 (KHTML, like Gecko) draw.io/22.0.0 Chrome/114.0.5735.289 Electron/25.8.3 Safari/537.36" etag="khcdLEa1cHAXSkllCPEL" version="22.0.0" type="device">
  <diagram name="Page-1" id="QRlzPcv_YrvUkOr1tR-k">
    <mxGraphModel dx="792" dy="1187" grid="1" gridSize="10" guides="1" tooltips="1" connect="1" arrows="1" fold="1" page="1" pageScale="1" pageWidth="827" pageHeight="1169" math="0" shadow="0">
      <root>
        <mxCell id="0" />
        <mxCell id="1" parent="0" />
        <mxCell id="x0YuXDK5_i0IshnIt9mq-31" value="Producer" style="rounded=1;whiteSpace=wrap;html=1;sketch=1;hachureGap=4;jiggle=2;curveFitting=1;fontFamily=Architects Daughter;fontSource=https%3A%2F%2Ffonts.googleapis.com%2Fcss%3Ffamily%3DArchitects%2BDaughter;fontSize=20;fontStyle=1;verticalAlign=top;align=right;spacingRight=15;fillColor=#dae8fc;strokeColor=#6c8ebf;" parent="1" vertex="1">
          <mxGeometry x="150" y="260" width="474" height="370" as="geometry" />
        </mxCell>
        <mxCell id="x0YuXDK5_i0IshnIt9mq-25" style="edgeStyle=orthogonalEdgeStyle;rounded=0;sketch=1;hachureGap=4;jiggle=2;curveFitting=1;orthogonalLoop=1;jettySize=auto;html=1;exitX=0.5;exitY=1;exitDx=0;exitDy=0;entryX=0.5;entryY=0;entryDx=0;entryDy=0;fontFamily=Architects Daughter;fontSource=https%3A%2F%2Ffonts.googleapis.com%2Fcss%3Ffamily%3DArchitects%2BDaughter;fontSize=16;" parent="1" source="x0YuXDK5_i0IshnIt9mq-1" target="x0YuXDK5_i0IshnIt9mq-8" edge="1">
          <mxGeometry relative="1" as="geometry" />
        </mxCell>
        <mxCell id="x0YuXDK5_i0IshnIt9mq-26" value="send()" style="edgeLabel;html=1;align=center;verticalAlign=middle;resizable=0;points=[];fontSize=15;fontFamily=Architects Daughter;" parent="x0YuXDK5_i0IshnIt9mq-25" vertex="1" connectable="0">
          <mxGeometry x="0.0133" y="4" relative="1" as="geometry">
            <mxPoint y="-5" as="offset" />
          </mxGeometry>
        </mxCell>
        <mxCell id="x0YuXDK5_i0IshnIt9mq-1" value="&lt;b style=&quot;font-size: 16px;&quot;&gt;Producer-record&lt;/b&gt;" style="rounded=0;whiteSpace=wrap;html=1;sketch=1;hachureGap=4;jiggle=2;curveFitting=1;fontFamily=Architects Daughter;fontSource=https%3A%2F%2Ffonts.googleapis.com%2Fcss%3Ffamily%3DArchitects%2BDaughter;fontSize=16;verticalAlign=top;fillColor=#dae8fc;strokeColor=#6c8ebf;" parent="1" vertex="1">
          <mxGeometry x="390" y="86" width="120" height="140" as="geometry" />
        </mxCell>
        <mxCell id="x0YuXDK5_i0IshnIt9mq-2" value="&lt;b&gt;&lt;font style=&quot;font-size: 15px;&quot;&gt;Topic&lt;/font&gt;&lt;/b&gt;" style="rounded=0;whiteSpace=wrap;html=1;sketch=1;hachureGap=4;jiggle=2;curveFitting=1;fontFamily=Architects Daughter;fontSource=https%3A%2F%2Ffonts.googleapis.com%2Fcss%3Ffamily%3DArchitects%2BDaughter;fontSize=20;fillColor=#d5e8d4;strokeColor=#82b366;" parent="1" vertex="1">
          <mxGeometry x="405" y="136" width="90" height="20" as="geometry" />
        </mxCell>
        <mxCell id="x0YuXDK5_i0IshnIt9mq-3" value="&lt;span style=&quot;font-size: 15px;&quot;&gt;&lt;b&gt;Partition&lt;/b&gt;&lt;/span&gt;" style="rounded=0;whiteSpace=wrap;html=1;sketch=1;hachureGap=4;jiggle=2;curveFitting=1;fontFamily=Architects Daughter;fontSource=https%3A%2F%2Ffonts.googleapis.com%2Fcss%3Ffamily%3DArchitects%2BDaughter;fontSize=20;fillColor=#d5e8d4;strokeColor=#82b366;" parent="1" vertex="1">
          <mxGeometry x="405" y="156" width="90" height="20" as="geometry" />
        </mxCell>
        <mxCell id="x0YuXDK5_i0IshnIt9mq-4" value="&lt;span style=&quot;font-size: 15px;&quot;&gt;&lt;b&gt;Key&lt;/b&gt;&lt;/span&gt;" style="rounded=0;whiteSpace=wrap;html=1;sketch=1;hachureGap=4;jiggle=2;curveFitting=1;fontFamily=Architects Daughter;fontSource=https%3A%2F%2Ffonts.googleapis.com%2Fcss%3Ffamily%3DArchitects%2BDaughter;fontSize=20;fillColor=#d5e8d4;strokeColor=#82b366;" parent="1" vertex="1">
          <mxGeometry x="405" y="176" width="90" height="20" as="geometry" />
        </mxCell>
        <mxCell id="x0YuXDK5_i0IshnIt9mq-5" value="&lt;span style=&quot;font-size: 15px;&quot;&gt;&lt;b&gt;Value&lt;/b&gt;&lt;/span&gt;" style="rounded=0;whiteSpace=wrap;html=1;sketch=1;hachureGap=4;jiggle=2;curveFitting=1;fontFamily=Architects Daughter;fontSource=https%3A%2F%2Ffonts.googleapis.com%2Fcss%3Ffamily%3DArchitects%2BDaughter;fontSize=20;fillColor=#d5e8d4;strokeColor=#82b366;" parent="1" vertex="1">
          <mxGeometry x="405" y="196" width="90" height="20" as="geometry" />
        </mxCell>
        <mxCell id="x0YuXDK5_i0IshnIt9mq-24" style="edgeStyle=orthogonalEdgeStyle;rounded=0;sketch=1;hachureGap=4;jiggle=2;curveFitting=1;orthogonalLoop=1;jettySize=auto;html=1;exitX=0.5;exitY=1;exitDx=0;exitDy=0;entryX=0.5;entryY=0;entryDx=0;entryDy=0;fontFamily=Architects Daughter;fontSource=https%3A%2F%2Ffonts.googleapis.com%2Fcss%3Ffamily%3DArchitects%2BDaughter;fontSize=16;" parent="1" source="x0YuXDK5_i0IshnIt9mq-8" target="x0YuXDK5_i0IshnIt9mq-9" edge="1">
          <mxGeometry relative="1" as="geometry" />
        </mxCell>
        <mxCell id="x0YuXDK5_i0IshnIt9mq-8" value="Serializer" style="rounded=0;whiteSpace=wrap;html=1;sketch=1;hachureGap=4;jiggle=2;curveFitting=1;fontFamily=Architects Daughter;fontSource=https%3A%2F%2Ffonts.googleapis.com%2Fcss%3Ffamily%3DArchitects%2BDaughter;fontSize=15;fontStyle=1" parent="1" vertex="1">
          <mxGeometry x="410" y="278" width="80" height="30" as="geometry" />
        </mxCell>
        <mxCell id="x0YuXDK5_i0IshnIt9mq-22" style="edgeStyle=orthogonalEdgeStyle;rounded=0;sketch=1;hachureGap=4;jiggle=2;curveFitting=1;orthogonalLoop=1;jettySize=auto;html=1;exitX=0.25;exitY=1;exitDx=0;exitDy=0;entryX=0.5;entryY=0;entryDx=0;entryDy=0;fontFamily=Architects Daughter;fontSource=https%3A%2F%2Ffonts.googleapis.com%2Fcss%3Ffamily%3DArchitects%2BDaughter;fontSize=16;" parent="1" source="x0YuXDK5_i0IshnIt9mq-9" target="x0YuXDK5_i0IshnIt9mq-11" edge="1">
          <mxGeometry relative="1" as="geometry" />
        </mxCell>
        <mxCell id="x0YuXDK5_i0IshnIt9mq-23" style="edgeStyle=orthogonalEdgeStyle;rounded=0;sketch=1;hachureGap=4;jiggle=2;curveFitting=1;orthogonalLoop=1;jettySize=auto;html=1;exitX=0.75;exitY=1;exitDx=0;exitDy=0;entryX=0.5;entryY=0;entryDx=0;entryDy=0;fontFamily=Architects Daughter;fontSource=https%3A%2F%2Ffonts.googleapis.com%2Fcss%3Ffamily%3DArchitects%2BDaughter;fontSize=16;" parent="1" source="x0YuXDK5_i0IshnIt9mq-9" target="x0YuXDK5_i0IshnIt9mq-16" edge="1">
          <mxGeometry relative="1" as="geometry" />
        </mxCell>
        <mxCell id="x0YuXDK5_i0IshnIt9mq-9" value="Partitioner" style="rounded=0;whiteSpace=wrap;html=1;sketch=1;hachureGap=4;jiggle=2;curveFitting=1;fontFamily=Architects Daughter;fontSource=https%3A%2F%2Ffonts.googleapis.com%2Fcss%3Ffamily%3DArchitects%2BDaughter;fontSize=15;fontStyle=1" parent="1" vertex="1">
          <mxGeometry x="410" y="330" width="80" height="30" as="geometry" />
        </mxCell>
        <mxCell id="x0YuXDK5_i0IshnIt9mq-11" value="&lt;b style=&quot;font-size: 14px;&quot;&gt;Buffer, Topic A&lt;br&gt;Partition 0&lt;br&gt;&lt;/b&gt;" style="rounded=0;whiteSpace=wrap;html=1;sketch=1;hachureGap=4;jiggle=2;curveFitting=1;fontFamily=Architects Daughter;fontSource=https%3A%2F%2Ffonts.googleapis.com%2Fcss%3Ffamily%3DArchitects%2BDaughter;fontSize=16;verticalAlign=top;fillColor=#f8cecc;strokeColor=#b85450;" parent="1" vertex="1">
          <mxGeometry x="285" y="400" width="120" height="140" as="geometry" />
        </mxCell>
        <mxCell id="x0YuXDK5_i0IshnIt9mq-12" value="&lt;b&gt;&lt;font style=&quot;font-size: 15px;&quot;&gt;Batch 0&lt;/font&gt;&lt;/b&gt;" style="rounded=0;whiteSpace=wrap;html=1;sketch=1;hachureGap=4;jiggle=2;curveFitting=1;fontFamily=Architects Daughter;fontSource=https%3A%2F%2Ffonts.googleapis.com%2Fcss%3Ffamily%3DArchitects%2BDaughter;fontSize=20;fillColor=#d5e8d4;strokeColor=#82b366;" parent="1" vertex="1">
          <mxGeometry x="300" y="450" width="90" height="20" as="geometry" />
        </mxCell>
        <mxCell id="x0YuXDK5_i0IshnIt9mq-13" value="&lt;span style=&quot;font-size: 15px;&quot;&gt;&lt;b&gt;Msg 1&lt;/b&gt;&lt;/span&gt;" style="rounded=0;whiteSpace=wrap;html=1;sketch=1;hachureGap=4;jiggle=2;curveFitting=1;fontFamily=Architects Daughter;fontSource=https%3A%2F%2Ffonts.googleapis.com%2Fcss%3Ffamily%3DArchitects%2BDaughter;fontSize=20;fillColor=#d5e8d4;strokeColor=#82b366;" parent="1" vertex="1">
          <mxGeometry x="300" y="470" width="90" height="20" as="geometry" />
        </mxCell>
        <mxCell id="x0YuXDK5_i0IshnIt9mq-14" value="&lt;span style=&quot;font-size: 15px;&quot;&gt;&lt;b&gt;Msg 2&lt;/b&gt;&lt;/span&gt;" style="rounded=0;whiteSpace=wrap;html=1;sketch=1;hachureGap=4;jiggle=2;curveFitting=1;fontFamily=Architects Daughter;fontSource=https%3A%2F%2Ffonts.googleapis.com%2Fcss%3Ffamily%3DArchitects%2BDaughter;fontSize=20;fillColor=#d5e8d4;strokeColor=#82b366;" parent="1" vertex="1">
          <mxGeometry x="300" y="490" width="90" height="20" as="geometry" />
        </mxCell>
        <mxCell id="x0YuXDK5_i0IshnIt9mq-15" value="&lt;span style=&quot;font-size: 15px;&quot;&gt;&lt;b&gt;Msg 3&lt;/b&gt;&lt;/span&gt;" style="rounded=0;whiteSpace=wrap;html=1;sketch=1;hachureGap=4;jiggle=2;curveFitting=1;fontFamily=Architects Daughter;fontSource=https%3A%2F%2Ffonts.googleapis.com%2Fcss%3Ffamily%3DArchitects%2BDaughter;fontSize=20;fillColor=#d5e8d4;strokeColor=#82b366;" parent="1" vertex="1">
          <mxGeometry x="300" y="510" width="90" height="20" as="geometry" />
        </mxCell>
        <mxCell id="x0YuXDK5_i0IshnIt9mq-16" value="&lt;b style=&quot;font-size: 14px;&quot;&gt;Buffer, Topic B&lt;br&gt;Partition 1&lt;br&gt;&lt;/b&gt;" style="rounded=0;whiteSpace=wrap;html=1;sketch=1;hachureGap=4;jiggle=2;curveFitting=1;fontFamily=Architects Daughter;fontSource=https%3A%2F%2Ffonts.googleapis.com%2Fcss%3Ffamily%3DArchitects%2BDaughter;fontSize=16;verticalAlign=top;fillColor=#f8cecc;strokeColor=#b85450;" parent="1" vertex="1">
          <mxGeometry x="495" y="400" width="120" height="140" as="geometry" />
        </mxCell>
        <mxCell id="x0YuXDK5_i0IshnIt9mq-17" value="&lt;b&gt;&lt;font style=&quot;font-size: 15px;&quot;&gt;Batch 0&lt;/font&gt;&lt;/b&gt;" style="rounded=0;whiteSpace=wrap;html=1;sketch=1;hachureGap=4;jiggle=2;curveFitting=1;fontFamily=Architects Daughter;fontSource=https%3A%2F%2Ffonts.googleapis.com%2Fcss%3Ffamily%3DArchitects%2BDaughter;fontSize=20;fillColor=#d5e8d4;strokeColor=#82b366;" parent="1" vertex="1">
          <mxGeometry x="510" y="450" width="90" height="20" as="geometry" />
        </mxCell>
        <mxCell id="x0YuXDK5_i0IshnIt9mq-18" value="&lt;span style=&quot;font-size: 15px;&quot;&gt;&lt;b&gt;Msg 1&lt;/b&gt;&lt;/span&gt;" style="rounded=0;whiteSpace=wrap;html=1;sketch=1;hachureGap=4;jiggle=2;curveFitting=1;fontFamily=Architects Daughter;fontSource=https%3A%2F%2Ffonts.googleapis.com%2Fcss%3Ffamily%3DArchitects%2BDaughter;fontSize=20;fillColor=#d5e8d4;strokeColor=#82b366;" parent="1" vertex="1">
          <mxGeometry x="510" y="470" width="90" height="20" as="geometry" />
        </mxCell>
        <mxCell id="x0YuXDK5_i0IshnIt9mq-19" value="&lt;span style=&quot;font-size: 15px;&quot;&gt;&lt;b&gt;Msg 2&lt;/b&gt;&lt;/span&gt;" style="rounded=0;whiteSpace=wrap;html=1;sketch=1;hachureGap=4;jiggle=2;curveFitting=1;fontFamily=Architects Daughter;fontSource=https%3A%2F%2Ffonts.googleapis.com%2Fcss%3Ffamily%3DArchitects%2BDaughter;fontSize=20;fillColor=#d5e8d4;strokeColor=#82b366;" parent="1" vertex="1">
          <mxGeometry x="510" y="490" width="90" height="20" as="geometry" />
        </mxCell>
        <mxCell id="x0YuXDK5_i0IshnIt9mq-20" value="&lt;span style=&quot;font-size: 15px;&quot;&gt;&lt;b&gt;Msg 3&lt;/b&gt;&lt;/span&gt;" style="rounded=0;whiteSpace=wrap;html=1;sketch=1;hachureGap=4;jiggle=2;curveFitting=1;fontFamily=Architects Daughter;fontSource=https%3A%2F%2Ffonts.googleapis.com%2Fcss%3Ffamily%3DArchitects%2BDaughter;fontSize=20;fillColor=#d5e8d4;strokeColor=#82b366;" parent="1" vertex="1">
          <mxGeometry x="510" y="510" width="90" height="20" as="geometry" />
        </mxCell>
        <mxCell id="x0YuXDK5_i0IshnIt9mq-34" style="edgeStyle=orthogonalEdgeStyle;rounded=0;sketch=1;hachureGap=4;jiggle=2;curveFitting=1;orthogonalLoop=1;jettySize=auto;html=1;exitX=0;exitY=0.5;exitDx=0;exitDy=0;entryX=0.5;entryY=1;entryDx=0;entryDy=0;fontFamily=Architects Daughter;fontSource=https%3A%2F%2Ffonts.googleapis.com%2Fcss%3Ffamily%3DArchitects%2BDaughter;fontSize=16;" parent="1" source="x0YuXDK5_i0IshnIt9mq-27" target="x0YuXDK5_i0IshnIt9mq-32" edge="1">
          <mxGeometry relative="1" as="geometry" />
        </mxCell>
        <mxCell id="x0YuXDK5_i0IshnIt9mq-27" value="&lt;b style=&quot;font-size: 16px;&quot;&gt;Broker 1 partition leader for A+0&lt;/b&gt;" style="rounded=0;whiteSpace=wrap;html=1;sketch=1;hachureGap=4;jiggle=2;curveFitting=1;fontFamily=Architects Daughter;fontSource=https%3A%2F%2Ffonts.googleapis.com%2Fcss%3Ffamily%3DArchitects%2BDaughter;fontSize=16;fillColor=#ffe6cc;strokeColor=#d79b00;" parent="1" vertex="1">
          <mxGeometry x="282.5" y="680" width="125" height="80" as="geometry" />
        </mxCell>
        <mxCell id="x0YuXDK5_i0IshnIt9mq-28" value="&lt;b style=&quot;border-color: var(--border-color); font-size: 16px;&quot;&gt;Broker 2 partition leader for B+1&lt;/b&gt;" style="rounded=0;whiteSpace=wrap;html=1;sketch=1;hachureGap=4;jiggle=2;curveFitting=1;fontFamily=Architects Daughter;fontSource=https%3A%2F%2Ffonts.googleapis.com%2Fcss%3Ffamily%3DArchitects%2BDaughter;fontSize=20;fillColor=#ffe6cc;strokeColor=#d79b00;" parent="1" vertex="1">
          <mxGeometry x="418" y="680" width="125" height="80" as="geometry" />
        </mxCell>
        <mxCell id="x0YuXDK5_i0IshnIt9mq-35" value="failure" style="edgeStyle=orthogonalEdgeStyle;rounded=0;sketch=1;hachureGap=4;jiggle=2;curveFitting=1;orthogonalLoop=1;jettySize=auto;html=1;exitX=0.5;exitY=0;exitDx=0;exitDy=0;entryX=0.5;entryY=1;entryDx=0;entryDy=0;fontFamily=Architects Daughter;fontSource=https%3A%2F%2Ffonts.googleapis.com%2Fcss%3Ffamily%3DArchitects%2BDaughter;fontSize=16;fillColor=#f8cecc;strokeColor=#b85450;" parent="1" source="x0YuXDK5_i0IshnIt9mq-32" target="x0YuXDK5_i0IshnIt9mq-33" edge="1">
          <mxGeometry relative="1" as="geometry" />
        </mxCell>
        <mxCell id="x0YuXDK5_i0IshnIt9mq-37" style="edgeStyle=orthogonalEdgeStyle;rounded=0;sketch=1;hachureGap=4;jiggle=2;curveFitting=1;orthogonalLoop=1;jettySize=auto;html=1;exitX=0;exitY=0.5;exitDx=0;exitDy=0;entryX=0;entryY=0.5;entryDx=0;entryDy=0;fontFamily=Architects Daughter;fontSource=https%3A%2F%2Ffonts.googleapis.com%2Fcss%3Ffamily%3DArchitects%2BDaughter;fontSize=16;fillColor=#d5e8d4;strokeColor=#82b366;" parent="1" source="x0YuXDK5_i0IshnIt9mq-32" target="x0YuXDK5_i0IshnIt9mq-1" edge="1">
          <mxGeometry relative="1" as="geometry" />
        </mxCell>
        <mxCell id="x0YuXDK5_i0IshnIt9mq-38" value="When successful, &lt;br&gt;return metadata" style="edgeLabel;html=1;align=center;verticalAlign=middle;resizable=0;points=[];fontSize=15;fontFamily=Architects Daughter;" parent="x0YuXDK5_i0IshnIt9mq-37" vertex="1" connectable="0">
          <mxGeometry x="0.083" relative="1" as="geometry">
            <mxPoint x="-41" y="260" as="offset" />
          </mxGeometry>
        </mxCell>
        <mxCell id="x0YuXDK5_i0IshnIt9mq-32" value="Ack?" style="rhombus;whiteSpace=wrap;html=1;sketch=1;hachureGap=4;jiggle=2;curveFitting=1;fontFamily=Architects Daughter;fontSource=https%3A%2F%2Ffonts.googleapis.com%2Fcss%3Ffamily%3DArchitects%2BDaughter;fontSize=15;fontStyle=1" parent="1" vertex="1">
          <mxGeometry x="181" y="490" width="70" height="70" as="geometry" />
        </mxCell>
        <mxCell id="x0YuXDK5_i0IshnIt9mq-33" value="Retry?" style="rhombus;whiteSpace=wrap;html=1;sketch=1;hachureGap=4;jiggle=2;curveFitting=1;fontFamily=Architects Daughter;fontSource=https%3A%2F%2Ffonts.googleapis.com%2Fcss%3Ffamily%3DArchitects%2BDaughter;fontSize=15;fontStyle=1" parent="1" vertex="1">
          <mxGeometry x="181" y="379" width="70" height="70" as="geometry" />
        </mxCell>
        <mxCell id="x0YuXDK5_i0IshnIt9mq-40" style="edgeStyle=orthogonalEdgeStyle;rounded=0;sketch=1;hachureGap=4;jiggle=2;curveFitting=1;orthogonalLoop=1;jettySize=auto;html=1;exitX=1;exitY=0.5;exitDx=0;exitDy=0;entryX=-0.005;entryY=0.137;entryDx=0;entryDy=0;entryPerimeter=0;fontFamily=Architects Daughter;fontSource=https%3A%2F%2Ffonts.googleapis.com%2Fcss%3Ffamily%3DArchitects%2BDaughter;fontSize=16;" parent="1" source="x0YuXDK5_i0IshnIt9mq-33" target="x0YuXDK5_i0IshnIt9mq-11" edge="1">
          <mxGeometry relative="1" as="geometry" />
        </mxCell>
        <mxCell id="x0YuXDK5_i0IshnIt9mq-41" value="yes" style="edgeLabel;html=1;align=center;verticalAlign=middle;resizable=0;points=[];fontSize=15;fontFamily=Architects Daughter;" parent="x0YuXDK5_i0IshnIt9mq-40" vertex="1" connectable="0">
          <mxGeometry x="-0.0047" relative="1" as="geometry">
            <mxPoint x="-10" y="-14" as="offset" />
          </mxGeometry>
        </mxCell>
        <mxCell id="x0YuXDK5_i0IshnIt9mq-42" style="edgeStyle=orthogonalEdgeStyle;rounded=0;sketch=1;hachureGap=4;jiggle=2;curveFitting=1;orthogonalLoop=1;jettySize=auto;html=1;exitX=0.5;exitY=0;exitDx=0;exitDy=0;entryX=0;entryY=0.631;entryDx=0;entryDy=0;entryPerimeter=0;fontFamily=Architects Daughter;fontSource=https%3A%2F%2Ffonts.googleapis.com%2Fcss%3Ffamily%3DArchitects%2BDaughter;fontSize=16;fillColor=#f8cecc;strokeColor=#b85450;" parent="1" source="x0YuXDK5_i0IshnIt9mq-33" target="x0YuXDK5_i0IshnIt9mq-1" edge="1">
          <mxGeometry relative="1" as="geometry" />
        </mxCell>
        <mxCell id="x0YuXDK5_i0IshnIt9mq-43" value="If can&#39;t retry, &lt;br style=&quot;font-size: 15px;&quot;&gt;throw exception" style="edgeLabel;html=1;align=center;verticalAlign=middle;resizable=0;points=[];fontSize=15;fontFamily=Architects Daughter;" parent="x0YuXDK5_i0IshnIt9mq-42" vertex="1" connectable="0">
          <mxGeometry x="-0.2522" y="4" relative="1" as="geometry">
            <mxPoint x="28" y="-21" as="offset" />
          </mxGeometry>
        </mxCell>
        <mxCell id="EfI5UpPdhaAxp_S3FQPH-1" value="&lt;font style=&quot;font-size: 15px;&quot;&gt;key.serializer&lt;br style=&quot;font-size: 15px;&quot;&gt;value.serializer&lt;br style=&quot;font-size: 15px;&quot;&gt;&lt;/font&gt;" style="shape=callout;whiteSpace=wrap;html=1;perimeter=calloutPerimeter;sketch=1;hachureGap=4;jiggle=2;curveFitting=1;fontFamily=Architects Daughter;fontSource=https%3A%2F%2Ffonts.googleapis.com%2Fcss%3Ffamily%3DArchitects%2BDaughter;fontSize=15;verticalAlign=middle;fontStyle=1;position2=0;" vertex="1" parent="1">
          <mxGeometry x="500" y="198" width="110" height="80" as="geometry" />
        </mxCell>
        <mxCell id="EfI5UpPdhaAxp_S3FQPH-2" value="&lt;font style=&quot;font-size: 15px;&quot;&gt;&lt;b&gt;batch.size&lt;br&gt;linger.ms&lt;br&gt;compression.type&lt;/b&gt;&lt;/font&gt;" style="shape=callout;whiteSpace=wrap;html=1;perimeter=calloutPerimeter;sketch=1;hachureGap=4;jiggle=2;curveFitting=1;fontFamily=Architects Daughter;fontSource=https%3A%2F%2Ffonts.googleapis.com%2Fcss%3Ffamily%3DArchitects%2BDaughter;fontSize=20;flipV=1;flipH=0;position2=0;" vertex="1" parent="1">
          <mxGeometry x="610" y="500" width="145" height="100" as="geometry" />
        </mxCell>
        <mxCell id="EfI5UpPdhaAxp_S3FQPH-3" value="&lt;b style=&quot;font-size: 15px;&quot;&gt;&lt;span style=&quot;&quot;&gt;retries&lt;br&gt;&lt;/span&gt;request.timeout.ms&lt;br&gt;delivery.timeout.ms&lt;br&gt;retries.backoff.ms&lt;/b&gt;" style="shape=callout;whiteSpace=wrap;html=1;perimeter=calloutPerimeter;sketch=1;hachureGap=4;jiggle=2;curveFitting=1;fontFamily=Architects Daughter;fontSource=https%3A%2F%2Ffonts.googleapis.com%2Fcss%3Ffamily%3DArchitects%2BDaughter;fontSize=20;flipV=0;flipH=1;position2=0;" vertex="1" parent="1">
          <mxGeometry x="30" y="290" width="145" height="130" as="geometry" />
        </mxCell>
        <mxCell id="EfI5UpPdhaAxp_S3FQPH-7" style="edgeStyle=orthogonalEdgeStyle;rounded=0;sketch=1;hachureGap=4;jiggle=2;curveFitting=1;orthogonalLoop=1;jettySize=auto;html=1;exitX=0.25;exitY=1;exitDx=0;exitDy=0;entryX=0.5;entryY=0;entryDx=0;entryDy=0;fontFamily=Architects Daughter;fontSource=https%3A%2F%2Ffonts.googleapis.com%2Fcss%3Ffamily%3DArchitects%2BDaughter;fontSize=16;" edge="1" parent="1" source="EfI5UpPdhaAxp_S3FQPH-4" target="x0YuXDK5_i0IshnIt9mq-27">
          <mxGeometry relative="1" as="geometry" />
        </mxCell>
        <mxCell id="EfI5UpPdhaAxp_S3FQPH-8" style="edgeStyle=orthogonalEdgeStyle;rounded=0;sketch=1;hachureGap=4;jiggle=2;curveFitting=1;orthogonalLoop=1;jettySize=auto;html=1;exitX=0.75;exitY=1;exitDx=0;exitDy=0;entryX=0.5;entryY=0;entryDx=0;entryDy=0;fontFamily=Architects Daughter;fontSource=https%3A%2F%2Ffonts.googleapis.com%2Fcss%3Ffamily%3DArchitects%2BDaughter;fontSize=16;" edge="1" parent="1" source="EfI5UpPdhaAxp_S3FQPH-4" target="x0YuXDK5_i0IshnIt9mq-28">
          <mxGeometry relative="1" as="geometry" />
        </mxCell>
        <mxCell id="EfI5UpPdhaAxp_S3FQPH-4" value="I/O Threads" style="rounded=0;whiteSpace=wrap;html=1;sketch=1;hachureGap=4;jiggle=2;curveFitting=1;fontFamily=Architects Daughter;fontSource=https%3A%2F%2Ffonts.googleapis.com%2Fcss%3Ffamily%3DArchitects%2BDaughter;fontSize=15;fontStyle=1;fillColor=#d5e8d4;strokeColor=#82b366;" vertex="1" parent="1">
          <mxGeometry x="330" y="580" width="200" height="35" as="geometry" />
        </mxCell>
        <mxCell id="EfI5UpPdhaAxp_S3FQPH-5" style="edgeStyle=orthogonalEdgeStyle;rounded=0;sketch=1;hachureGap=4;jiggle=2;curveFitting=1;orthogonalLoop=1;jettySize=auto;html=1;exitX=0.5;exitY=1;exitDx=0;exitDy=0;entryX=0.32;entryY=-0.057;entryDx=0;entryDy=0;entryPerimeter=0;fontFamily=Architects Daughter;fontSource=https%3A%2F%2Ffonts.googleapis.com%2Fcss%3Ffamily%3DArchitects%2BDaughter;fontSize=16;" edge="1" parent="1" source="x0YuXDK5_i0IshnIt9mq-11" target="EfI5UpPdhaAxp_S3FQPH-4">
          <mxGeometry relative="1" as="geometry" />
        </mxCell>
        <mxCell id="EfI5UpPdhaAxp_S3FQPH-6" style="edgeStyle=orthogonalEdgeStyle;rounded=0;sketch=1;hachureGap=4;jiggle=2;curveFitting=1;orthogonalLoop=1;jettySize=auto;html=1;exitX=0.5;exitY=1;exitDx=0;exitDy=0;entryX=0.785;entryY=-0.029;entryDx=0;entryDy=0;entryPerimeter=0;fontFamily=Architects Daughter;fontSource=https%3A%2F%2Ffonts.googleapis.com%2Fcss%3Ffamily%3DArchitects%2BDaughter;fontSize=16;" edge="1" parent="1" source="x0YuXDK5_i0IshnIt9mq-16" target="EfI5UpPdhaAxp_S3FQPH-4">
          <mxGeometry relative="1" as="geometry" />
        </mxCell>
        <mxCell id="EfI5UpPdhaAxp_S3FQPH-9" value="&lt;b style=&quot;font-size: 15px;&quot;&gt;&lt;span style=&quot;font-size: 15px;&quot;&gt;max.request.size&lt;br style=&quot;font-size: 15px;&quot;&gt;&lt;/span&gt;max.in.flight.requests.per.connection&lt;/b&gt;" style="shape=callout;whiteSpace=wrap;html=1;perimeter=calloutPerimeter;sketch=1;hachureGap=4;jiggle=2;curveFitting=1;fontFamily=Architects Daughter;fontSource=https%3A%2F%2Ffonts.googleapis.com%2Fcss%3Ffamily%3DArchitects%2BDaughter;fontSize=15;flipV=1;flipH=0;position2=0;" vertex="1" parent="1">
          <mxGeometry x="540" y="610" width="252.5" height="100" as="geometry" />
        </mxCell>
      </root>
    </mxGraphModel>
  </diagram>
</mxfile>
